<svg width="1792" height="1024" viewBox="0 0 1792 1024" xmlns="http://www.w3.org/2000/svg">
  <defs>
    <radialGradient id="a" cx="40%" cy="40%" r="60%">
      <stop offset="0%" stop-color="#35E3FF" stop-opacity="0.55"/>
      <stop offset="100%" stop-color="#35E3FF" stop-opacity="0"/>
    </radialGradient>
    <radialGradient id="b" cx="70%" cy="40%" r="55%">
      <stop offset="0%" stop-color="#7C4DFF" stop-opacity="0.45"/>
      <stop offset="100%" stop-color="#7C4DFF" stop-opacity="0"/>
    </radialGradient>
    <radialGradient id="c" cx="50%" cy="70%" r="60%">
      <stop offset="0%" stop-color="#FFD76A" stop-opacity="0.40"/>
      <stop offset="100%" stop-color="#FFD76A" stop-opacity="0"/>
    </radialGradient>
  </defs>
  <rect width="100%" height="100%" fill="#ffffff"/>
  <circle cx="0" cy="0" r="900" fill="url(#a)"/>
  <circle cx="1792" cy="0" r="800" fill="url(#b)"/>
  <circle cx="896" cy="1124" r="900" fill="url(#c)"/>
  <g opacity="0.25">
    <path d="M0,720 C320,640 640,720 896,672 C1152,624 1472,512 1792,560 L1792,1024 L0,1024 Z" fill="#7C4DFF"/>
    <path d="M0,780 C320,700 640,760 896,720 C1180,680 1460,650 1792,690 L1792,1024 L0,1024 Z" fill="#35E3FF"/>
  </g>
  <rect x="196" y="180" width="1400" height="620" rx="24" fill="#ffffff" opacity="0.75" stroke="rgba(0,0,0,0.08)"/>
</svg>
